<svg xmlns="http://www.w3.org/2000/svg" width="253.352" height="89.714" viewBox="0 0 253.352 89.714"><g id="ns-logo" transform="translate(-273 -16.394)"><g id="Group_92" data-name="Group 92" transform="translate(329.643 93.699)"><path id="Path_1" d="M257.213 352.905v1.131h3.687V364.9h1.2v-10.863h3.685v-1.131Z" data-name="Path 1" transform="translate(-257.213 -352.494)"/><path id="Path_2" d="M320.977 360.1h-3.359v4.8h-1.2v-12h4.8a3.594 3.594 0 0 1 1.011 7.044l2.931 4.953h-1.371Zm-3.359-1.131h3.6a2.469 2.469 0 0 0 0-4.936h-3.6Z" data-name="Path 2" transform="translate(-303.38 -352.494)"/><path id="Path_3" d="M382.061 361.954h-5.69l-1.114 2.948h-1.268l4.61-12h1.234l4.61 12h-1.268Zm-.428-1.131-2.417-6.427-2.417 6.427Z" data-name="Path 3" transform="translate(-348.271 -352.494)"/><path id="Path_4" d="M431.466 352.905h1.3l3.736 10.4 3.737-10.4h1.3l-4.422 12h-1.234Z" data-name="Path 4" transform="translate(-393.092 -352.494)"/><path id="Path_5" d="M504.234 363.771v1.129h-7.027v-12h6.942v1.131h-5.742v4.25h5.313v1.131h-5.313v4.353Z" data-name="Path 5" transform="translate(-444.355 -352.494)"/><path id="Path_6" d="M557.5 363.771v1.129h-6.684v-12h1.2v10.866Z" data-name="Path 6" transform="translate(-486.16 -352.494)"/><path id="Path_7" d="M647.026 358.151c0 2.862-2.177 5.3-5.861 5.3a6.2 6.2 0 1 1 0-12.409 5.922 5.922 0 0 1 5.193 2.948l-1.063.617a4.607 4.607 0 0 0-4.13-2.4 5.039 5.039 0 1 0 0 10.078c2.793 0 4.4-1.611 4.627-3.616h-4.765v-1.131h6Z" data-name="Path 7" transform="translate(-551.705 -351.038)"/><path id="Path_8" d="M717.216 360.1h-3.359v4.8h-1.2v-12h4.8a3.594 3.594 0 0 1 1.011 7.044l2.932 4.956h-1.371Zm-3.359-1.131h3.6a2.469 2.469 0 0 0 0-4.936h-3.6Z" data-name="Path 8" transform="translate(-612.359 -352.494)"/><path id="Path_9" d="M769.923 357.242a6.2 6.2 0 1 1 6.2 6.2 6.16 6.16 0 0 1-6.2-6.2m11.209 0a5 5 0 1 0-5 5.039 4.964 4.964 0 0 0 5-5.039" data-name="Path 9" transform="translate(-657.014 -351.037)"/><path id="Path_10" d="M848.524 359.889v-7.918h1.2v7.918a3.259 3.259 0 0 0 6.513 0v-7.918h1.2v7.918a4.46 4.46 0 0 1-8.912 0" data-name="Path 10" transform="translate(-718.305 -351.765)"/><path id="Path_11" d="M922.624 356.676a3.686 3.686 0 0 1-3.77 3.771h-3.085v4.453h-1.2v-12h4.285a3.676 3.676 0 0 1 3.77 3.771m-1.2 0a2.512 2.512 0 0 0-2.571-2.639h-3.085v5.279h3.085a2.522 2.522 0 0 0 2.571-2.64" data-name="Path 11" transform="translate(-769.805 -352.494)"/></g><g id="Group_91" fill="#0537d5" data-name="Group 91" transform="translate(273 16.394)"><path id="Path_818" d="M29.008 117.772v37.955h-4.88L6.235 129.971v25.755H0v-37.954h4.88l17.893 25.755v-25.755Z" data-name="Path 818" transform="translate(0 -91.836)"/><path id="Path_819" d="M143.336 178.073a14.314 14.314 0 1 1 14.314 14.26 14.152 14.152 0 0 1-14.314-14.26m22.773 0a8.459 8.459 0 1 0-8.458 8.567 8.326 8.326 0 0 0 8.458-8.567" data-name="Path 819" transform="translate(-111.77 -127.738)"/><path id="Path_820" d="M297.808 164.8v6.344c-3.85-.271-8.35 1.518-8.35 7.591V192.4H283.6v-27.11h5.856v4.555c1.627-3.687 4.934-5.043 8.35-5.043" data-name="Path 820" transform="translate(-221.147 -128.507)"/><path id="Path_821" d="M367.571 145.774v13.013c0 3.47 2.277 3.416 6.723 3.2v5.26c-9 1.084-12.579-1.41-12.579-8.458v-13.015h-4.988v-5.639h4.988v-5.856l5.856-1.735v7.591h6.723v5.639Z" data-name="Path 821" transform="translate(-278.169 -103.355)"/><path id="Path_822" d="M480.225 139.081v16.646h-5.855v-16.05c0-4.121-2.386-6.29-6.073-6.29-3.85 0-6.886 2.277-6.886 7.808v14.531h-5.856v-37.954h5.856v14.314c1.789-2.819 4.717-4.175 8.4-4.175 6.073 0 10.411 4.121 10.411 11.169" data-name="Path 822" transform="translate(-355.232 -91.836)"/><path id="Path_823" d="M598.226 183.983c0 5.422-4.717 8.35-10.573 8.35-5.422 0-9.326-2.44-11.061-6.344l5.043-2.928a5.955 5.955 0 0 0 6.018 3.9c2.6 0 4.609-.868 4.609-3.036 0-4.826-14.585-2.115-14.585-11.82 0-5.1 4.392-8.3 9.922-8.3a10.916 10.916 0 0 1 10.031 5.639l-4.934 2.765a5.285 5.285 0 0 0-5.1-3.09c-2.115 0-3.958.922-3.958 2.874 0 4.934 14.586 1.952 14.586 11.983" data-name="Path 823" transform="translate(-449.615 -127.738)"/><path id="Path_824" d="M690.034 145.774v13.013c0 3.47 2.277 3.416 6.724 3.2v5.26c-9 1.084-12.579-1.41-12.579-8.458v-13.015h-4.989v-5.639h4.989v-5.856l5.856-1.735v7.591h6.724v5.639Z" data-name="Path 824" transform="translate(-529.618 -103.355)"/><path id="Path_825" d="M796.792 164.518v27.11h-5.856v-3.9a11.14 11.14 0 0 1-9.489 4.609c-7.374 0-13.5-6.236-13.5-14.26 0-8.079 6.127-14.26 13.5-14.26a11.237 11.237 0 0 1 9.489 4.555v-3.85Zm-5.856 13.555a8.568 8.568 0 1 0-8.567 8.676 8.378 8.378 0 0 0 8.567-8.676" data-name="Path 825" transform="translate(-598.83 -127.738)"/><path id="Path_826" d="M936.7 164.8v6.344c-3.85-.271-8.35 1.518-8.35 7.591V192.4h-5.85v-27.11h5.856v4.555c1.627-3.687 4.934-5.043 8.35-5.043" data-name="Path 826" transform="translate(-719.345 -128.507)"/><path id="Path_827" d="M1132.33 110.7a1.995 1.995 0 1 0 1.995-1.995 1.995 1.995 0 0 0-1.995 1.995" data-name="Path 827" transform="translate(-882.968 -84.77)"/><path id="Path_828" d="M1052.786 3.991a1.995 1.995 0 1 0-2-1.995 2 2 0 0 0 2 1.995" data-name="Path 828" transform="translate(-819.386 -.001)"/><path id="Path_829" d="m1024.217 46.9-9.668-1.42a.209.209 0 0 1-.14-.132.25.25 0 0 1 .02-.207l3.92-5.664a.265.265 0 0 0 .036-.12.2.2 0 0 0-.012-.068.223.223 0 0 0-.024-.048.2.2 0 0 0-.171-.092.276.276 0 0 0-.144.048l-5.251 3.9a.166.166 0 0 1-.18.024.214.214 0 0 1-.116-.16l-1.893-15.6a.188.188 0 0 0-.375 0l-1.9 15.6a.219.219 0 0 1-.112.16.171.171 0 0 1-.184-.02l-5.287-3.917a.2.2 0 0 0-.266.034.236.236 0 0 0 0 .273l3.916 5.648a.252.252 0 0 1 .016.208c-.024.068-.053.117-.14.128l-9.669 1.4a.262.262 0 0 0-.151.238.214.214 0 0 0 .151.216l9.666 1.451a.206.206 0 0 1 .144.132.251.251 0 0 1-.02.207l-3.91 5.649a.219.219 0 0 0-.005.262.212.212 0 0 0 .273.042l5.285-3.92a.17.17 0 0 1 .187-.016.219.219 0 0 1 .112.172l1.891 15.549a.192.192 0 1 0 .379 0l1.911-15.546a.213.213 0 0 1 .108-.176.17.17 0 0 1 .187.02l5.218 3.895a.244.244 0 0 0 .064.032.177.177 0 0 1 .028.012l.052.012h.016a.21.21 0 0 0 .171-.327l-3.923-5.658a.25.25 0 0 1-.016-.207.194.194 0 0 1 .14-.132l9.666-1.451a.218.218 0 0 0 .151-.216.223.223 0 0 0-.151-.219" data-name="Path 829" transform="translate(-777.005 -21.195)"/><path id="Path_830" d="M1052.793 217.425a1.995 1.995 0 1 0 1.995 1.995 2 2 0 0 0-1.995-1.995" data-name="Path 830" transform="translate(-819.391 -169.544)"/><path id="Path_831" d="M973.25 110.712a2 2 0 1 0-2 1.995 2 2 0 0 0 2-1.995" data-name="Path 831" transform="translate(-755.809 -84.776)"/></g></g></svg>